# xmcd
#
# Track frame offsets: 
#        150
#        15836
#        34424
#        50460
#        70598
#        88968
#        109977
#        123867
#        140800
#        162664
#        171509
#
# Disc length: 2626 seconds
#
# Revision: 0
# Processed by: cddbd v1.5.2PL0 Copyright (c) Steve Scherf et al.
# Submitted via: ExactAudioCopy v1.2
#
DISCID=9c0a400b
DTITLE=Billy D and the Hoodoos - Overnight Success
DYEAR=2017
DGENRE=Blues
TTITLE0=Can't Get over You
TTITLE1=I Gotta Know
TTITLE2=Movieland Blues
TTITLE3=Cry Baby Cry
TTITLE4=It Must Be Love
TTITLE5=Please Don't Go
TTITLE6=Can't Take It Anymore
TTITLE7=Love Me Forever
TTITLE8=Rokdablu
TTITLE9=Mornin'
TTITLE10=Back Door Man (Live)
EXTD=
EXTT0=
EXTT1=
EXTT2=
EXTT3=
EXTT4=
EXTT5=
EXTT6=
EXTT7=
EXTT8=
EXTT9=
EXTT10=
PLAYORDER=
